Coordinates
version=1
nRows=19
nColumns=38
inDegrees=no

Units are S.I. units (second, meters, Newtons, ...)
If the header above contains a line with 'inDegrees', this indicates whether rotational values are in degrees (yes) or radians (no).

endheader
time	pelvis_tilt	pelvis_list	pelvis_rotation	pelvis_tx	pelvis_ty	pelvis_tz	hip_flexion_r	hip_adduction_r	hip_rotation_r	knee_angle_r	ankle_angle_r	subtalar_angle_r	mtp_angle_r	hip_flexion_l	hip_adduction_l	hip_rotation_l	knee_angle_l	ankle_angle_l	subtalar_angle_l	mtp_angle_l	lumbar_extension	lumbar_bending	lumbar_rotation	arm_flex_r	arm_add_r	arm_rot_r	elbow_flex_r	pro_sup_r	wrist_flex_r	wrist_dev_r	arm_flex_l	arm_add_l	arm_rot_l	elbow_flex_l	pro_sup_l	wrist_flex_l	wrist_dev_l
0	-0.140205	-0.0482918	-2.91526	-0.10036	0.970632	-0.0691967	-0.314801	0.080111	-0.255958	0.112741	0.254221	0	0	0.316983	0.0484068	-0.0241667	0.198207	0.0119388	0	0	-0.400548	0.0219432	0.0108807	0.584397	-0.475449	1.30374	0.687948	0.509492	0	0	0.0427817	-0.195295	1.5708	0.423535	0.0327745	0	0
0.00999079	-0.138402	-0.049405	-2.91582	-0.100637	0.969317	-0.0680414	-0.322244	0.0783568	-0.256537	0.11481	0.257613	0	0	0.317294	0.0542219	-0.0171728	0.183369	0.019708	0	0	-0.397475	0.0189444	0.010435	0.579754	-0.471219	1.30857	0.684853	0.50934	0	0	0.0451243	-0.197303	1.5708	0.420969	0.0342465	0	0
0.0199816	-0.136601	-0.0505283	-2.91638	-0.100924	0.968002	-0.0668799	-0.329653	0.0765614	-0.257187	0.116991	0.260999	0	0	0.317602	0.0600417	-0.010214	0.168833	0.0274156	0	0	-0.394399	0.0159344	0.00996928	0.575065	-0.466964	1.31342	0.681714	0.509212	0	0	0.0474793	-0.199334	1.5708	0.418421	0.035653	0	0
0.0299724	-0.134825	-0.0516651	-2.91696	-0.101241	0.966688	-0.0657046	-0.337049	0.0747032	-0.257905	0.119336	0.264303	0	0	0.317908	0.0658529	-0.00337459	0.155131	0.0349641	0	0	-0.391328	0.0129106	0.00945219	0.570269	-0.462633	1.3184	0.678439	0.509104	0	0	0.0498603	-0.201422	1.5708	0.41592	0.0368872	0	0
0.0399632	-0.133108	-0.0528186	-2.91758	-0.101609	0.96538	-0.0645082	-0.344486	0.0727653	-0.258633	0.121866	0.267408	0	0	0.31821	0.0716361	0.0032373	0.142884	0.0421938	0	0	-0.38828	0.00986823	0.00885674	0.565304	-0.458169	1.32361	0.67493	0.508976	0	0	0.0522789	-0.203606	1.5708	0.413499	0.0378469	0	0
0.049954	-0.131488	-0.0539945	-2.9183	-0.102053	0.964082	-0.0632856	-0.352018	0.0707224	-0.259279	0.124592	0.270181	0	0	0.318491	0.0773755	0.0095201	0.13268	0.0488539	0	0	-0.385271	0.0067943	0.00817532	0.560115	-0.453519	1.32919	0.671097	0.508757	0	0	0.054744	-0.205922	1.5708	0.411189	0.0384456	0	0
0.0599448	-0.129992	-0.0552045	-2.91918	-0.102597	0.962801	-0.0620342	-0.359684	0.0685276	-0.259737	0.12754	0.272497	0	0	0.318716	0.0830659	0.0154034	0.124972	0.0545869	0	0	-0.382306	0.00365975	0.00742817	0.554645	-0.448639	1.3353	0.666862	0.508365	0	0	0.057259	-0.208394	1.5708	0.409011	0.0386525	0	0
0.0699355	-0.128634	-0.0564707	-2.92034	-0.103262	0.961544	-0.0607546	-0.367481	0.0661017	-0.2599	0.130772	0.274246	0	0	0.31883	0.0887141	0.0208653	0.120022	0.0589352	0	0	-0.379377	0.000412514	0.0066687	0.548846	-0.443493	1.34206	0.66215	0.507716	0	0	0.0598231	-0.21104	1.5708	0.406976	0.0385125	0	0
0.0799263	-0.127408	-0.0578231	-2.92191	-0.104065	0.960318	-0.0594514	-0.375359	0.0633343	-0.259669	0.134391	0.275342	0	0	0.31876	0.0943334	0.0259392	0.117876	0.0613921	0	0	-0.376464	-0.00302018	0.00599	0.542667	-0.438061	1.34955	0.656912	0.506724	0	0	0.0624406	-0.213863	1.5708	0.405085	0.038121	0	0
0.0899171	-0.126294	-0.0592932	-2.92405	-0.105018	0.959131	-0.0581329	-0.383212	0.0600906	-0.258951	0.138548	0.275718	0	0	0.31843	0.0999315	0.030706	0.118378	0.0614832	0	0	-0.373538	-0.00672497	0.00552613	0.536067	-0.432352	1.35783	0.65113	0.505282	0	0	0.0651226	-0.216857	1.5708	0.403337	0.0376072	0	0
0.0999079	-0.125253	-0.060911	-2.92694	-0.106124	0.95799	-0.0568104	-0.390879	0.0562176	-0.257672	0.143446	0.275322	0	0	0.31777	0.105506	0.0352709	0.121215	0.0588449	0	0	-0.37056	-0.0107954	0.00544261	0.529005	-0.426395	1.36692	0.644821	0.50327	0	0	0.0678907	-0.220009	1.5708	0.401729	0.0370975	0	0
0.109899	-0.124235	-0.0627004	-2.93076	-0.107383	0.956903	-0.0554961	-0.398154	0.0515548	-0.255789	0.14933	0.274111	0	0	0.316735	0.111041	0.0397214	0.125978	0.0532844	0	0	-0.367482	-0.0153214	0.00592076	0.521442	-0.420236	1.37678	0.638023	0.500572	0	0	0.0707754	-0.223294	1.5708	0.400255	0.0366861	0	0
0.11989	-0.123184	-0.0646751	-2.93566	-0.108793	0.955877	-0.0542016	-0.404795	0.0459478	-0.253291	0.156478	0.272034	0	0	0.315321	0.116498	0.0440686	0.132231	0.0448216	0	0	-0.364243	-0.0203775	0.00713725	0.513336	-0.413932	1.38733	0.630781	0.497114	0	0	0.07381	-0.226676	1.5708	0.398895	0.0364118	0	0
0.12988	-0.122042	-0.0668403	-2.94175	-0.110346	0.95492	-0.0529356	-0.410554	0.0392623	-0.250217	0.165178	0.26903	0	0	0.313566	0.121824	0.048204	0.139568	0.0337158	0	0	-0.360778	-0.026016	0.00923281	0.504643	-0.407536	1.39846	0.623142	0.492853	0	0	0.0770218	-0.230113	1.5708	0.397621	0.0362323	0	0
0.139871	-0.120767	-0.0691984	-2.94909	-0.11204	0.954035	-0.0517015	-0.415196	0.0313937	-0.246659	0.175709	0.265013	0	0	0.311537	0.126956	0.0518927	0.147661	0.0204513	0	0	-0.357027	-0.0322619	0.0122811	0.495316	-0.401099	1.41002	0.615157	0.48776	0	0	0.0804282	-0.23356	1.5708	0.3964	0.0360283	0	0
0.149862	-0.119343	-0.0717589	-2.95764	-0.113869	0.953231	-0.0504957	-0.418535	0.022275	-0.242779	0.188325	0.259862	0	0	0.309312	0.131847	0.0548069	0.156291	0.00568223	0	0	-0.352955	-0.0391114	0.0162484	0.485326	-0.39465	1.42191	0.606873	0.481811	0	0	0.0840287	-0.236987	1.5708	0.395211	0.0356439	0	0
0.159853	-0.117792	-0.0745482	-2.96723	-0.115832	0.952514	-0.0493051	-0.420454	0.0118817	-0.238817	0.203235	0.253409	0	0	0.306946	0.136482	0.0565807	0.165356	-0.00983079	0	0	-0.348567	-0.046534	0.0209648	0.47466	-0.388196	1.43403	0.59832	0.474999	0	0	0.0878034	-0.24039	1.5708	0.39406	0.0349263	0	0
0.169843	-0.116187	-0.0776208	-2.97759	-0.117928	0.951898	-0.0481061	-0.420931	0.00023043	-0.235097	0.220593	0.245442	0	0	0.304441	0.140904	0.0568826	0.174854	-0.0252724	0	0	-0.343924	-0.054478	0.0261088	0.463321	-0.381726	1.44627	0.589536	0.467339	0	0	0.0917182	-0.24379	1.5708	0.392985	0.0337569	0	0
0.179834	-0.114632	-0.0810364	-2.98836	-0.120151	0.951396	-0.0468719	-0.419989	-0.0126252	-0.231961	0.240525	0.235714	0	0	0.301761	0.145188	0.0554482	0.184849	-0.0398174	0	0	-0.339147	-0.0628715	0.0312754	0.451356	-0.375219	1.45857	0.580567	0.458862	0	0	0.0957467	-0.247228	1.5708	0.392044	0.032065	0	0
